<?xml version="1.0" encoding="UTF-8" standalone="no"?>
<svg
   xmlns:dc="http://purl.org/dc/elements/1.1/"
   xmlns:cc="http://creativecommons.org/ns#"
   xmlns:rdf="http://www.w3.org/1999/02/22-rdf-syntax-ns#"
   xmlns:svg="http://www.w3.org/2000/svg"
   xmlns="http://www.w3.org/2000/svg"
   xmlns:sodipodi="http://sodipodi.sourceforge.net/DTD/sodipodi-0.dtd"
   xmlns:inkscape="http://www.inkscape.org/namespaces/inkscape"
   id="svg2"
   sodipodi:docname="rainy-cloud.svg"
   inkscape:version="1.0 (4035a4fb49, 2020-05-01)"
   viewBox="0 0 107.95 87.723"
   sodipodi:version="0.32"
   version="1.0"
   inkscape:output_extension="org.inkscape.output.svg.inkscape"
   inkscape:label="Pozadí">
  <defs
     id="defs16" />
  <sodipodi:namedview
     id="base"
     bordercolor="#666666"
     inkscape:pageshadow="2"
     inkscape:guide-bbox="true"
     pagecolor="#ffffff"
     inkscape:zoom="4"
     inkscape:window-width="1920"
     showgrid="false"
     borderopacity="1.0"
     inkscape:current-layer="layer1"
     inkscape:cx="2.42221"
     inkscape:cy="91.973841"
     showguides="true"
     inkscape:window-y="-9"
     inkscape:window-x="-9"
     inkscape:window-height="1001"
     inkscape:pageopacity="0.0"
     inkscape:document-units="px"
     inkscape:document-rotation="0"
     inkscape:window-maximized="1" />
  <g
     id="layer1"
     inkscape:label="Vrstva 1"
     inkscape:groupmode="layer"
     transform="translate(-310.1 -167.39)">
    <g
       id="g13542"
       transform="translate(-2.4761 19.309)">
      <path
         id="path8749"
         style="stroke-linejoin:round;stroke:#6798e9;stroke-linecap:round;stroke-miterlimit:.5;stroke-width:6.154;fill:none"
         d="m378.31 207.24c15.43-1.4 26.66-5.66 26.66-10.69 0-0.41-0.27-0.8-0.42-1.2 0.91 0.23 1.83 0.46 2.83 0.46 5.57 0 10.07-3.78 10.07-8.44 0-4.65-4.5-8.41-10.07-8.41-0.68 0-1.29 0.22-1.93 0.33 0.56-1.86 0.95-3.77 0.95-5.79 0-12.33-11.17-22.34-24.95-22.34-9.77 0-18.13 5.09-22.23 12.4-1.64-0.92-3.47-1.48-5.4-1.48-5.83 0-10.68 4.69-12.18 11.06-2.56-1.01-5.52-1.64-8.7-1.64-9.54 0-17.29 5.23-17.29 11.67 0 5.81 6.35 10.59 14.6 11.47-0.37 0.63-0.66 1.25-0.66 1.91 0 4.25 8.01 7.94 19.79 9.83" />
      <path
         id="path8734"
         sodipodi:nodetypes="cccc"
         style="stroke:#6798e9;stroke-miterlimit:3.2;stroke-width:4;fill:#6798e9"
         d="m338.14 223.91c-8.25 7.27 1.43 13.47 5.12 3.49l2.83-9.26-7.95 5.77z" />
      <path
         id="path8736"
         sodipodi:nodetypes="cccc"
         style="stroke:#6798e9;stroke-miterlimit:3.2;stroke-width:4;fill:#6798e9"
         d="m367.18 225.11c-8.25 7.27 1.44 13.47 5.13 3.49l2.83-9.26-7.96 5.77z" />
      <path
         id="path8738"
         sodipodi:nodetypes="cccc"
         style="stroke:#6798e9;stroke-miterlimit:3.2;stroke-width:4;fill:#6798e9"
         d="m360.42 209.77c-8.25 7.27 1.44 13.47 5.12 3.49l2.83-9.26-7.95 5.77z" />
      <path
         id="path10281"
         style="stroke-linejoin:round;stroke:#6798e9;stroke-linecap:round;stroke-miterlimit:.5;stroke-width:6.154;fill:none"
         d="m378.31 207.24c15.43-1.4 26.66-5.66 26.66-10.69 0-0.41-0.27-0.8-0.42-1.2 0.91 0.23 1.83 0.46 2.83 0.46 5.57 0 10.07-3.78 10.07-8.44 0-4.65-4.5-8.41-10.07-8.41-0.68 0-1.29 0.22-1.93 0.33 0.56-1.86 0.95-3.77 0.95-5.79 0-12.33-11.17-22.34-24.95-22.34-9.77 0-18.13 5.09-22.23 12.4-1.64-0.92-3.47-1.48-5.4-1.48-5.83 0-10.68 4.69-12.18 11.06-2.56-1.01-5.52-1.64-8.7-1.64-9.54 0-17.29 5.23-17.29 11.67 0 5.81 6.35 10.59 14.6 11.47-0.37 0.63-0.66 1.25-0.66 1.91 0 4.25 8.01 7.94 19.79 9.83" />
      <path
         id="path10283"
         sodipodi:nodetypes="cccc"
         style="stroke:#6798e9;stroke-miterlimit:3.2;stroke-width:4;fill:#6798e9"
         d="m338.14 223.91c-8.25 7.27 1.43 13.47 5.12 3.49l2.83-9.26-7.95 5.77z" />
      <path
         id="path10285"
         sodipodi:nodetypes="cccc"
         style="stroke:#6798e9;stroke-miterlimit:3.2;stroke-width:4;fill:#6798e9"
         d="m367.18 225.11c-8.25 7.27 1.44 13.47 5.13 3.49l2.83-9.26-7.96 5.77z" />
      <path
         id="path10287"
         sodipodi:nodetypes="cccc"
         style="stroke:#6798e9;stroke-miterlimit:3.2;stroke-width:4;fill:#6798e9"
         d="m360.42 209.77c-8.25 7.27 1.44 13.47 5.12 3.49l2.83-9.26-7.95 5.77z" />
    </g>
    <path
       style="fill:#b3b3b3;stroke-width:0.03125"
       d="m 99.303571,43.028724 c -1.029484,0.710134 -2.263562,1.132214 -3.492309,1.27655 -0.763335,0.05845 -1.545644,0.0859 -2.290223,-0.125 -0.737097,-0.178732 -1.509333,-0.391361 -2.266531,-0.194586 -0.919791,0.212409 -1.754873,0.802691 -2.210703,1.636786 -0.439845,0.755405 -0.520179,1.690855 -0.313148,2.531114 0.03915,0.195907 0.164611,0.388947 0.180265,0.573743 -0.34724,0.483456 -0.807333,0.880289 -1.280819,1.236716 -1.690129,1.192521 -3.607806,1.970381 -5.551682,2.645458 -3.749085,1.262592 -7.631152,2.031918 -11.540739,2.60112 -1.722722,0.254292 -3.475695,0.432667 -5.217754,0.620162 -1.53565,0.148628 -2.839131,1.507294 -2.932068,3.04602 -0.124301,1.339521 0.635402,2.718442 1.859986,3.290588 0.573754,0.278168 1.220574,0.412679 1.856689,0.330201 4.329395,-0.388281 8.642366,-1.024634 12.875488,-2.020142 3.422358,-0.825965 6.824181,-1.857174 9.968167,-3.465018 2.029789,-1.057975 3.997395,-2.38443 5.358684,-4.258259 0.371097,-0.516159 0.687022,-1.073015 0.927238,-1.661977 1.513619,-0.06882 3.026219,-0.30231 4.459515,-0.805185 2.906343,-0.981093 5.522253,-2.94643 7.072013,-5.616809 0.22619,-0.428625 0.48766,-0.848434 0.64433,-1.307225 0.0752,-0.257197 -0.21177,-0.429927 -0.43971,-0.375456 -2.50499,0 -5.00997,0 -7.514954,0 -0.05058,0.01373 -0.101157,0.02747 -0.151735,0.0412 z"
       id="path60"
       transform="translate(310.1,167.39)" />
    <path
       style="fill:#b3b3b3;stroke-width:0.176777"
       d="M 68.027807,-0.077733 C 62.02621,-0.21382928 56.09921,1.9719962 51.280737,5.4767995 49.026686,7.1309445 47.037966,9.1298233 45.326158,11.337139 43.075978,10.637131 40.63239,10.735846 38.31551,11.008099 33.246048,12.086793 29.216064,16.022088 27.08183,20.627289 26.592028,21.100121 25.570625,20.48184 24.854243,20.50881 20.90521,19.920386 16.801451,20.087473 12.936858,21.108136 7.6584866,22.58808 2.403285,25.955756 0.42625762,31.291499 -0.93201969,35.31655 0.07748558,39.987373 2.963503,43.107444 c 2.7792649,3.18833 6.7535419,5.018254 10.752426,6.157963 0.719344,4.036608 4.415358,6.581886 7.879683,8.203544 4.538681,2.095825 9.471995,3.189202 14.371738,4.033063 31.965975,3.346399 36.371907,-1.03743 37.013065,-2.482203 0.936935,-1.869591 -4.113703,-4.201533 -35.7364,-3.915777 -5.335216,-1.230401 -10.971327,-2.04027 -15.591587,-5.192504 -0.65138,-0.425207 -1.586619,-1.171919 -0.97937,-2.026155 0.673617,-1.662576 -0.07461,-3.895419 -1.916576,-4.378675 -3.468471,-0.765461 -7.272384,-1.352947 -9.9122701,-3.948819 -1.3206983,-1.165453 -2.6172894,-2.720906 -2.3216561,-4.613787 -0.1043231,-2.683396 2.2148319,-4.62157 4.3321462,-5.886473 5.244585,-2.877192 11.689493,-2.875253 17.2378,-0.899075 1.61101,0.615335 3.440762,-0.366706 3.98438,-1.964569 1.00834,-3.101176 2.543545,-6.351134 5.567775,-7.938723 2.426493,-1.327104 5.453879,-1.068202 7.815119,0.30349 1.422207,0.58013 3.069158,0.01626 3.871823,-1.284394 2.064766,-3.266659 4.818252,-6.168625 8.242214,-7.9974193 3.442452,-1.9173855 7.420518,-2.9515935 11.390357,-2.8014964 7.895648,-0.185051 16.006401,4.0777047 19.636024,11.2149627 1.892386,3.600524 2.396384,7.942556 1.297522,11.855245 -0.401616,1.494327 -0.392291,3.440138 1.111061,4.330525 1.17542,1.041913 2.744036,0.440734 4.09383,0.379794 2.710971,-1.06e-4 5.866513,1.572029 6.365343,4.448419 0.29935,1.589067 -0.71305,2.990677 -1.564599,4.187868 0.582689,0.696428 2.017509,0.121747 2.927709,0.309236 1.53248,-0.06979 3.12737,0.141192 4.62002,-0.107724 1.32351,-3.413901 0.71693,-7.503527 -1.58823,-10.366642 -2.06805,-2.802457 -5.46861,-4.388525 -8.833308,-4.981857 0.06312,-3.332709 0.06448,-6.7485 -1.185991,-9.899495 C 93.042543,9.5339258 85.669449,3.2798168 77.323084,0.95417775 74.319819,-0.05249152 71.163399,-0.12856927 68.027807,-0.077733 Z"
       id="path62"
       sodipodi:nodetypes="cccccccccccccccccccccccccccccccccccccccc"
       transform="translate(310.1,167.39)" />
    <path
       style="fill:#333333;stroke-width:0.125"
       d="m 59.16215,50.774896 c -4.412187,3.084048 -8.786957,6.237861 -13.038744,9.543534 -1.848335,1.604538 -3.450292,3.787739 -3.695143,6.288741 -0.171556,1.770773 0.379152,3.669112 1.824707,4.793213 1.94906,1.729617 5.05442,1.435764 7.039306,-0.08106 2.457878,-1.751503 3.672015,-4.672285 4.428064,-7.49354 1.29916,-4.245438 2.648968,-8.479429 3.84806,-12.753042 -0.01882,-0.204353 -0.20338,-0.358818 -0.40625,-0.297851 z"
       id="path64"
       transform="translate(310.1,167.39)" />
    <path
       style="fill:#333333;stroke-width:0.125"
       d="m 65.91923,66.147454 c -4.240685,2.90723 -8.402956,5.94419 -12.492432,9.064453 -1.88149,1.422614 -3.411451,3.417791 -4.092041,5.690186 -0.136018,1.191657 -0.267904,2.467757 0.121582,3.622071 0.495381,1.365421 1.521629,2.502819 2.888622,3.029259 2.395965,1.021988 5.224987,-0.04149 6.848138,-1.953892 2.264903,-2.069557 2.834027,-5.220967 3.789557,-7.996212 1.099111,-3.708593 2.32742,-7.38299 3.335744,-11.116265 0.03571,-0.21773 -0.196195,-0.391477 -0.39917,-0.3396 z"
       id="path66"
       transform="translate(310.1,167.39)" />
    <path
       style="fill:#333333;stroke-width:0.125"
       d="m 36.813517,65.004144 c -1.654372,0.972508 -3.16274,2.231393 -4.753841,3.322125 -3.116162,2.332775 -6.423249,4.448272 -9.26889,7.118291 -2.004882,2.051738 -3.359735,5.17245 -2.309826,8.009381 0.756528,2.157342 3.085736,3.543663 5.343055,3.223299 3.007082,-0.253635 5.287667,-2.783236 6.43882,-5.403619 1.405412,-3.409312 2.240887,-7.020174 3.392851,-10.5179 0.518752,-1.816815 1.170482,-3.612016 1.591912,-5.447866 -0.03011,-0.202308 -0.23823,-0.333732 -0.434081,-0.303711 z"
       id="path68"
       transform="translate(310.1,167.39)" />
    <path
       style="fill:#000000;fill-opacity:0;stroke-width:0.125"
       d="m 69.082137,6.2381612 c -3.28252,-0.038129 -6.58677,0.5027472 -9.589111,1.8659667 -2.644839,1.1118708 -5.037744,2.7705381 -6.997335,4.8669361 -1.447616,1.361986 -2.528259,3.031451 -3.719461,4.6045 -0.959719,1.121644 -2.688079,1.133724 -3.888565,0.448149 -2.615062,-1.258594 -5.941405,-1.172248 -8.284775,0.637788 -2.455206,1.768811 -3.77157,4.619398 -4.742187,7.395019 -0.442274,1.455263 -2.088753,2.404027 -3.551758,1.905274 -4.257585,-1.407022 -8.908956,-1.920419 -13.291221,-0.77231 -3.097283,0.853291 -6.3262612,2.369164 -8.0561036,5.21051 -0.8269779,1.51628 -0.9568273,3.50146 -0.1543848,5.052523 1.6463514,2.655862 4.4546404,4.445011 7.4487814,5.218885 1.731587,0.59502 3.637196,0.662303 5.286082,1.480333 1.129402,0.901262 1.401827,2.609835 0.810791,3.880372 -0.422911,1.073132 0.820706,1.744218 1.532715,2.262206 4.550668,3.025545 10.086598,3.806884 15.299316,5.016602 5.289609,0.0025 10.594881,0.108152 15.874768,0.04693 2.079936,-1.396245 4.106162,-2.974548 6.185046,-4.33331 -0.161316,1.350585 -0.734016,2.683391 -1.08081,4.016601 -0.176809,0.724889 0.86233,0.60298 1.310531,0.68724 1.839764,0.09748 3.663723,0.342248 5.50148,0.39528 6.752999,-0.791844 13.633355,-1.669431 19.928769,-4.385154 1.505006,-0.726147 3.127429,-1.506718 4.141544,-2.876076 0.04306,-0.72546 -0.283865,-1.478317 -0.08716,-2.225586 0.206688,-1.545674 1.77783,-2.676479 3.311279,-2.408691 1.360129,0.179855 2.737407,0.533278 4.11134,0.202903 1.279987,-0.172893 2.380287,-0.899747 3.548329,-1.361107 1.015923,-1.119324 1.900753,-2.607269 1.796143,-4.172363 -0.46914,-3.040867 -3.725695,-4.94214 -6.633791,-4.825928 -1.326895,-0.07993 -2.891786,0.568472 -4.014892,-0.413818 C 89.576223,32.679594 89.900045,30.683971 90.230573,29.213989 91.33203,24.591936 90.35847,19.563154 87.640729,15.669555 83.593957,9.626993 76.281536,6.163326 69.082137,6.2381612 Z"
       id="path70"
       transform="translate(310.1,167.39)" />
    <path
       style="fill:#000000;fill-opacity:0;stroke-width:0.125"
       d="m 69.082137,6.2381612 c -3.28252,-0.038129 -6.58677,0.5027472 -9.589111,1.8659667 -2.644839,1.1118708 -5.037744,2.7705381 -6.997335,4.8669361 -1.447616,1.361986 -2.528259,3.031451 -3.719461,4.6045 -0.959719,1.121644 -2.688079,1.133724 -3.888565,0.448149 -2.615062,-1.258594 -5.941405,-1.172248 -8.284775,0.637788 -2.455206,1.768811 -3.77157,4.619398 -4.742187,7.395019 -0.442274,1.455263 -2.088753,2.404027 -3.551758,1.905274 -4.257585,-1.407022 -8.908956,-1.920419 -13.291221,-0.77231 -3.097283,0.853291 -6.3262612,2.369164 -8.0561036,5.21051 -0.8269779,1.51628 -0.9568273,3.50146 -0.1543848,5.052523 1.6463514,2.655862 4.4546404,4.445011 7.4487814,5.218885 1.731587,0.59502 3.637196,0.662303 5.286082,1.480333 1.129402,0.901262 1.401827,2.609835 0.810791,3.880372 -0.422911,1.073132 0.820706,1.744218 1.532715,2.262206 4.550668,3.025545 10.086598,3.806884 15.299316,5.016602 5.289609,0.0025 10.594881,0.108152 15.874768,0.04693 2.079936,-1.396245 4.106162,-2.974548 6.185046,-4.33331 -0.161316,1.350585 -0.734016,2.683391 -1.08081,4.016601 -0.176809,0.724889 0.86233,0.60298 1.310531,0.68724 1.839764,0.09748 3.663723,0.342248 5.50148,0.39528 6.752999,-0.791844 13.633355,-1.669431 19.928769,-4.385154 1.505006,-0.726147 3.127429,-1.506718 4.141544,-2.876076 0.04306,-0.72546 -0.283865,-1.478317 -0.08716,-2.225586 0.206688,-1.545674 1.77783,-2.676479 3.311279,-2.408691 1.360129,0.179855 2.737407,0.533278 4.11134,0.202903 1.279987,-0.172893 2.380287,-0.899747 3.548329,-1.361107 1.015923,-1.119324 1.900753,-2.607269 1.796143,-4.172363 -0.46914,-3.040867 -3.725695,-4.94214 -6.633791,-4.825928 -1.326895,-0.07993 -2.891786,0.568472 -4.014892,-0.413818 C 89.576223,32.679594 89.900045,30.683971 90.230573,29.213989 91.33203,24.591936 90.35847,19.563154 87.640729,15.669555 83.593957,9.626993 76.281536,6.163326 69.082137,6.2381612 Z"
       id="path72"
       transform="translate(310.1,167.39)" />
    <path
       style="fill:#000000;fill-opacity:0;stroke-width:0.125"
       d="m 69.082137,6.2381612 c -3.28252,-0.038129 -6.58677,0.5027472 -9.589111,1.8659667 -2.644839,1.1118708 -5.037744,2.7705381 -6.997335,4.8669361 -1.447616,1.361986 -2.528259,3.031451 -3.719461,4.6045 -0.959719,1.121644 -2.688079,1.133724 -3.888565,0.448149 -2.615062,-1.258594 -5.941405,-1.172248 -8.284775,0.637788 -2.455206,1.768811 -3.77157,4.619398 -4.742187,7.395019 -0.442274,1.455263 -2.088753,2.404027 -3.551758,1.905274 -4.257585,-1.407022 -8.908956,-1.920419 -13.291221,-0.77231 -3.097283,0.853291 -6.3262612,2.369164 -8.0561036,5.21051 -0.8269779,1.51628 -0.9568273,3.50146 -0.1543848,5.052523 1.6463514,2.655862 4.4546404,4.445011 7.4487814,5.218885 1.731587,0.59502 3.637196,0.662303 5.286082,1.480333 1.129402,0.901262 1.401827,2.609835 0.810791,3.880372 -0.422911,1.073132 0.820706,1.744218 1.532715,2.262206 4.550668,3.025545 10.086598,3.806884 15.299316,5.016602 5.289609,0.0025 10.594881,0.108152 15.874768,0.04693 2.079936,-1.396245 4.106162,-2.974548 6.185046,-4.33331 -0.161316,1.350585 -0.734016,2.683391 -1.08081,4.016601 -0.176809,0.724889 0.86233,0.60298 1.310531,0.68724 1.839764,0.09748 3.663723,0.342248 5.50148,0.39528 6.752999,-0.791844 13.633355,-1.669431 19.928769,-4.385154 1.505006,-0.726147 3.127429,-1.506718 4.141544,-2.876076 0.04306,-0.72546 -0.283865,-1.478317 -0.08716,-2.225586 0.206688,-1.545674 1.77783,-2.676479 3.311279,-2.408691 1.360129,0.179855 2.737407,0.533278 4.11134,0.202903 1.279987,-0.172893 2.380287,-0.899747 3.548329,-1.361107 1.015923,-1.119324 1.900753,-2.607269 1.796143,-4.172363 -0.46914,-3.040867 -3.725695,-4.94214 -6.633791,-4.825928 -1.326895,-0.07993 -2.891786,0.568472 -4.014892,-0.413818 C 89.576223,32.679594 89.900045,30.683971 90.230573,29.213989 91.33203,24.591936 90.35847,19.563154 87.640729,15.669555 83.593957,9.626993 76.281536,6.163326 69.082137,6.2381612 Z"
       id="path74"
       transform="translate(310.1,167.39)" />
    <path
       style="fill:#000000;fill-opacity:0;stroke-width:0.125"
       d="m 69.082137,6.2381612 c -3.28252,-0.038129 -6.58677,0.5027472 -9.589111,1.8659667 -2.644839,1.1118708 -5.037744,2.7705381 -6.997335,4.8669361 -1.447616,1.361986 -2.528259,3.031451 -3.719461,4.6045 -0.959719,1.121644 -2.688079,1.133724 -3.888565,0.448149 -2.615062,-1.258594 -5.941405,-1.172248 -8.284775,0.637788 -2.455206,1.768811 -3.77157,4.619398 -4.742187,7.395019 -0.442274,1.455263 -2.088753,2.404027 -3.551758,1.905274 -4.257585,-1.407022 -8.908956,-1.920419 -13.291221,-0.77231 -3.097283,0.853291 -6.3262612,2.369164 -8.0561036,5.21051 -0.8269779,1.51628 -0.9568273,3.50146 -0.1543848,5.052523 1.6463514,2.655862 4.4546404,4.445011 7.4487814,5.218885 1.731587,0.59502 3.637196,0.662303 5.286082,1.480333 1.129402,0.901262 1.401827,2.609835 0.810791,3.880372 -0.422911,1.073132 0.820706,1.744218 1.532715,2.262206 4.550668,3.025545 10.086598,3.806884 15.299316,5.016602 5.289609,0.0025 10.594881,0.108152 15.874768,0.04693 2.079936,-1.396245 4.106162,-2.974548 6.185046,-4.33331 -0.161316,1.350585 -0.734016,2.683391 -1.08081,4.016601 -0.176809,0.724889 0.86233,0.60298 1.310531,0.68724 1.839764,0.09748 3.663723,0.342248 5.50148,0.39528 6.752999,-0.791844 13.633355,-1.669431 19.928769,-4.385154 1.505006,-0.726147 3.127429,-1.506718 4.141544,-2.876076 0.04306,-0.72546 -0.283865,-1.478317 -0.08716,-2.225586 0.206688,-1.545674 1.77783,-2.676479 3.311279,-2.408691 1.360129,0.179855 2.737407,0.533278 4.11134,0.202903 1.279987,-0.172893 2.380287,-0.899747 3.548329,-1.361107 1.015923,-1.119324 1.900753,-2.607269 1.796143,-4.172363 -0.46914,-3.040867 -3.725695,-4.94214 -6.633791,-4.825928 -1.326895,-0.07993 -2.891786,0.568472 -4.014892,-0.413818 C 89.576223,32.679594 89.900045,30.683971 90.230573,29.213989 91.33203,24.591936 90.35847,19.563154 87.640729,15.669555 83.593957,9.626993 76.281536,6.163326 69.082137,6.2381612 Z"
       id="path76"
       transform="translate(310.1,167.39)" />
    <path
       style="fill:#000000;fill-opacity:0;stroke-width:0.176777"
       d="m 68.445157,6.2376629 c -6.801964,0.077433 -13.571455,3.2274444 -17.684092,8.7080341 -1.190787,1.38438 -2.07344,3.739614 -4.257279,3.597972 -1.905793,-0.414122 -3.671827,-1.577115 -5.705882,-1.32479 -3.7373,0.09029 -6.528834,3.194432 -7.92664,6.404012 -0.760667,1.559431 -1.068672,3.893807 -3.036278,4.396975 -1.741556,0.330222 -3.320494,-0.775979 -5.03905,-0.957919 C 19.2079,25.910432 12.841094,26.760203 8.4546736,30.641478 6.3849544,32.445052 5.40687,35.893809 7.3059705,38.16312 c 2.2754228,3.064935 6.0311975,4.419585 9.6371515,5.159164 1.427172,0.224425 3.179918,0.663758 3.605218,2.270981 0.409107,1.001994 -0.103584,2.016282 -0.239615,2.978964 0.795128,1.569692 2.622041,2.276406 4.092449,3.081163 4.05072,1.865826 8.486977,2.68473 12.819754,3.58434 5.274297,0.01649 10.57156,0.187866 15.831536,0.10829 2.05682,-1.424016 4.089757,-3.033167 6.212389,-4.277167 -0.128739,1.471945 -0.981427,2.859511 -0.946722,4.327921 1.063087,0.504139 2.396266,0.318392 3.559703,0.521353 4.344771,0.41064 8.670386,-0.532186 12.93232,-1.256426 4.306178,-0.961969 8.815687,-1.847693 12.547001,-4.330339 0.679933,-0.543764 1.862757,-1.017266 1.593063,-2.10164 -0.253481,-1.434114 0.147875,-3.246525 1.666949,-3.789306 1.86795,-0.709643 3.824942,0.417692 5.737646,-0.07527 1.282425,-0.207182 2.499664,-0.794441 3.646367,-1.335838 1.22976,-1.505761 2.35028,-3.659702 1.24261,-5.549476 -1.2991,-2.549753 -4.377125,-3.67015 -7.10883,-3.300289 -1.252888,0.102315 -2.739997,0.165011 -3.585811,-0.980331 -1.251258,-1.747413 -0.191427,-3.935093 -0.052,-5.846673 C 90.925711,23.805529 90.283142,20.133097 88.440604,17.047972 84.528053,10.008561 76.366971,6.0180052 68.445157,6.2376629 Z"
       id="path78"
       transform="translate(310.1,167.39)" />
    <path
       style="fill:#000000;fill-opacity:0;stroke-width:0.176777"
       d="m 68.445157,6.2376629 c -6.801964,0.077433 -13.571455,3.2274444 -17.684092,8.7080341 -1.190787,1.38438 -2.07344,3.739614 -4.257279,3.597972 -1.905793,-0.414122 -3.671827,-1.577115 -5.705882,-1.32479 -3.7373,0.09029 -6.528834,3.194432 -7.92664,6.404012 -0.760667,1.559431 -1.068672,3.893807 -3.036278,4.396975 -1.741556,0.330222 -3.320494,-0.775979 -5.03905,-0.957919 C 19.2079,25.910432 12.841094,26.760203 8.4546736,30.641478 6.3849544,32.445052 5.40687,35.893809 7.3059705,38.16312 c 2.2754228,3.064935 6.0311975,4.419585 9.6371515,5.159164 1.427172,0.224425 3.179918,0.663758 3.605218,2.270981 0.409107,1.001994 -0.103584,2.016282 -0.239615,2.978964 0.795128,1.569692 2.622041,2.276406 4.092449,3.081163 4.05072,1.865826 8.486977,2.68473 12.819754,3.58434 5.274297,0.01649 10.57156,0.187866 15.831536,0.10829 2.05682,-1.424016 4.089757,-3.033167 6.212389,-4.277167 -0.128739,1.471945 -0.981427,2.859511 -0.946722,4.327921 1.063087,0.504139 2.396266,0.318392 3.559703,0.521353 4.344771,0.41064 8.670386,-0.532186 12.93232,-1.256426 4.306178,-0.961969 8.815687,-1.847693 12.547001,-4.330339 0.679933,-0.543764 1.862757,-1.017266 1.593063,-2.10164 -0.253481,-1.434114 0.147875,-3.246525 1.666949,-3.789306 1.86795,-0.709643 3.824942,0.417692 5.737646,-0.07527 1.282425,-0.207182 2.499664,-0.794441 3.646367,-1.335838 1.22976,-1.505761 2.35028,-3.659702 1.24261,-5.549476 -1.2991,-2.549753 -4.377125,-3.67015 -7.10883,-3.300289 -1.252888,0.102315 -2.739997,0.165011 -3.585811,-0.980331 -1.251258,-1.747413 -0.191427,-3.935093 -0.052,-5.846673 C 90.925711,23.805529 90.283142,20.133097 88.440604,17.047972 84.528053,10.008561 76.366971,6.0180052 68.445157,6.2376629 Z"
       id="path80"
       transform="translate(310.1,167.39)" />
    <path
       style="fill:#000000;fill-opacity:0;stroke-width:0.176777"
       d="m 68.344684,6.2490567 c -7.396362,-0.067945 -14.65876,3.8552623 -18.660546,10.0785013 -0.796393,1.3225 -2.249293,2.690603 -3.927165,2.035881 -2.496686,-1.258235 -5.619196,-1.695982 -8.173506,-0.344921 -3.1997,1.612346 -4.642566,5.097261 -5.869884,8.248082 -0.575438,1.505971 -2.412783,2.255239 -3.861119,1.529534 -2.782812,-1.014884 -5.748632,-1.25247 -8.687608,-1.128334 -3.832814,-0.08473 -7.679435,1.348437 -10.629735,3.770661 -2.3560109,1.856548 -3.1941802,5.724717 -1.0385632,8.047483 2.3057875,2.856874 5.8761082,4.206022 9.3810512,4.873875 1.331036,0.312308 3.097318,0.493124 3.511218,2.071171 0.459273,0.993996 0.09027,2.026806 -0.118427,3.011073 0.208806,1.408464 1.847433,1.93849 2.872712,2.65966 4.304719,2.298281 9.192942,3.148589 13.901386,4.192422 5.330811,0.01111 10.68429,0.17523 16.001061,0.09158 2.033144,-1.371746 4.197161,-3.130961 6.203757,-4.227448 -0.160587,1.38766 -1.002101,2.678566 -0.960878,4.071733 0.556436,0.913175 1.933767,0.46286 2.8138,0.681736 4.282596,0.539522 8.556125,-0.327168 12.767588,-1.019548 4.670956,-0.960047 9.515258,-1.953 13.602994,-4.530107 0.700155,-0.579137 2.054478,-1.281868 1.485338,-2.374401 -0.557686,-2.137036 1.652866,-4.362319 3.802426,-3.701954 2.219052,0.590378 4.594628,0.231044 6.572848,-0.918754 1.171698,-0.286196 1.581468,-1.645455 2.113038,-2.587776 1.05212,-2.427055 -0.85932,-5.144688 -3.105335,-6.058745 C 96.173568,33.514216 93.592785,34.61462 91.386421,33.829674 90.120143,33.091243 89.701024,31.505653 90.054036,30.153962 91.279698,25.331642 90.66469,19.937869 87.777343,15.803281 83.598556,9.618767 76.080605,6.003645 68.657496,6.2483662 c -0.10427,-4.9e-6 -0.20854,6.302e-4 -0.312812,6.905e-4 z"
       id="path82"
       transform="translate(310.1,167.39)" />
    <path
       style="fill:#000000;fill-opacity:0;stroke-width:0.176777"
       d="m 67.612801,6.3084427 c -4.207653,-0.050897 -8.314258,1.5249783 -11.802793,3.7969683 -2.802435,1.820464 -4.906635,4.457452 -6.837135,7.136256 -0.835779,1.23905 -2.54573,1.650377 -3.831773,0.847976 -3.117461,-1.527681 -7.223175,-1.152178 -9.660215,1.462572 -2.018882,1.909076 -2.822771,4.625684 -3.965056,7.065177 -0.695077,1.401145 -2.5006,1.799751 -3.83885,1.128053 -2.920304,-1.077534 -6.04676,-1.180018 -9.121404,-1.069116 -3.619512,0.05095 -7.22559,1.457089 -10.0041479,3.759982 -2.2431086,1.756781 -3.188063,5.327207 -1.3251298,7.684687 2.2306748,3.07544 5.9428317,4.516255 9.5504297,5.210424 1.362679,0.30667 3.18616,0.499841 3.621851,2.102329 0.486793,1.012162 0.03625,2.050161 -0.12982,3.055269 0.265131,1.384835 1.866472,1.916761 2.902494,2.63229 4.30573,2.262519 9.168933,3.138783 13.867115,4.172833 5.337461,0.01091 10.697813,0.175682 16.021086,0.09124 2.058132,-1.43824 4.058022,-2.965442 6.190637,-4.293742 -0.143698,1.413439 -1.007853,2.72301 -0.967784,4.138371 0.556437,0.913175 1.933768,0.46286 2.813801,0.681736 4.282454,0.539598 8.555709,-0.327541 12.767294,-1.018231 4.662333,-0.956915 9.498883,-1.942208 13.580846,-4.511399 0.701265,-0.58689 2.075813,-1.291688 1.50778,-2.394426 -0.558213,-2.139797 1.656179,-4.36207 3.806223,-3.701262 2.230424,0.609204 4.60325,0.203781 6.599021,-0.925955 1.300679,-0.473183 1.777359,-2.017634 2.269509,-3.184795 0.66588,-2.670489 -1.682322,-5.029313 -4.06483,-5.764232 -2.04313,-0.767953 -4.357887,0.23684 -6.313206,-0.664984 -1.258661,-0.814881 -1.52581,-2.438099 -1.169765,-3.791722 1.052715,-4.382744 0.715744,-9.230726 -1.686284,-13.131884 C 85.369428,11.630089 80.011624,8.0478811 74.195661,6.7445149 72.043384,6.2699958 69.803913,6.3215032 67.612801,6.3084427 Z"
       id="path86"
       transform="translate(310.1,167.39)" />
    <path
       style="fill:#333333;fill-opacity:0;stroke-width:0.176777"
       d="M 67.491959,-0.21848436 C 62.594792,-0.45258431 57.827393,1.2798576 53.63087,3.6775083 c -3.186923,1.8079746 -5.881083,4.3377378 -8.26362,7.0931647 -0.550995,0.428204 -1.309377,-0.174215 -1.944888,-0.07423 -3.153689,-0.26711 -6.510055,-0.07086 -9.247316,1.693782 -3.240575,1.702679 -5.515101,4.733312 -7.251613,7.870804 -0.515923,0.577277 -1.454625,-0.07921 -2.121676,-0.01644 -6.422538,-0.766634 -13.346471,-0.0017 -18.7664594,3.788171 -2.5750053,1.865926 -4.8596192,4.291907 -5.86948647,7.368848 -0.78022388,2.423471 -0.70442108,5.141476 0.0798783,7.556666 1.82494797,5.168129 6.83787187,8.383784 11.82020757,10.046162 0.967573,0.173669 1.67289,0.606008 1.792979,1.638018 1.740135,4.296591 6.182606,6.611406 10.293196,8.15155 5.931467,2.15515 12.20754,3.171172 18.487284,3.583267 1.029693,0.213101 2.075047,0.231669 2.605325,-0.844406 2.343666,-2.268641 5.214592,-3.964396 7.611065,-6.115715 -0.573408,-0.708747 -1.832741,-0.364197 -2.69032,-0.504434 -4.447514,-0.139184 -8.917658,0.04063 -13.351785,-0.152908 -5.328976,-1.269902 -11.046604,-2.103892 -15.526,-5.47598 -1.021083,-0.8051 0.130702,-2.072154 -0.155715,-3.098426 -0.08459,-1.527313 -1.294533,-2.738407 -2.7755,-2.984391 C 14.814058,42.339673 11.020424,41.653172 8.4806523,38.80532 7.2800919,37.78176 6.5548215,36.242675 6.8168108,34.650377 c 0.094611,-2.481883 2.3150204,-4.295027 4.3491752,-5.419668 4.862212,-2.676168 10.690447,-2.657755 15.914198,-1.140059 1.531551,0.680293 3.671689,0.713002 4.651092,-0.885609 1.096355,-1.821661 1.519514,-3.997204 2.840856,-5.707264 1.613743,-2.527633 4.676976,-4.380749 7.774722,-3.747528 1.919551,0.21693 3.858304,1.980419 5.792545,0.8863 1.865282,-1.291776 2.753871,-3.526493 4.4025,-5.054708 4.295995,-4.6504343 10.743533,-7.2139177 17.08444,-6.8058167 8.400487,-0.00435 17.003143,5.2720447 19.733425,13.4247157 1.117595,3.166191 0.952441,6.649227 0.224448,9.902472 -0.247008,1.507376 -0.0052,3.338328 1.485683,4.125939 1.506077,0.808409 3.364642,0.265155 4.969083,0.457134 2.135602,0.04551 4.282102,1.508192 5.016732,3.526902 0.64857,2.291 -1.00314,4.71893 -3.248275,5.289836 -1.988825,0.916858 -4.185044,0.285367 -6.291455,0.228912 -1.8799,0.149509 -3.427359,2.042059 -3.016597,3.929137 0.198955,0.741701 -0.0176,1.467551 -0.72299,1.844071 -3.725121,2.696902 -8.350597,3.689538 -12.754297,4.658494 -3.581498,0.661748 -7.190671,1.281606 -10.826056,1.440993 -1.964859,-0.168544 -3.955164,-0.404222 -5.92133,-0.326967 -0.75881,1.361725 -1.002267,3.021746 -1.549481,4.497146 -0.17724,1.001351 -0.855458,2.021842 -0.730316,3.028292 0.879275,0.51666 2.050834,0.05715 3.026467,0.13145 4.458163,-0.359822 8.963938,-0.102416 13.38819,-0.951098 6.633885,-1.171045 13.536117,-2.492426 19.211372,-6.339461 1.599539,-1.063977 2.923114,-2.523193 3.80346,-4.21433 2.557525,-0.360314 5.158618,-0.968657 7.362818,-2.395462 3.32065,-1.944716 5.56319,-5.608443 5.54119,-9.490008 0.21639,-4.700664 -3.00658,-9.020913 -7.24853,-10.806511 C 99.916213,28.199448 98.672615,27.872539 97.434547,27.557208 97.323254,23.728997 97.110351,19.801797 95.484135,16.265252 92.186653,8.4394559 84.888788,2.6737691 76.753055,0.52660178 73.760846,-0.42581781 70.583884,-0.18535976 67.491959,-0.21848436 Z"
       id="path88"
       transform="translate(310.1,167.39)" />
    <path
       style="fill:#333333;fill-opacity:0;stroke-width:0.176777"
       d="M 67.491959,-0.21848436 C 62.594792,-0.45258431 57.827393,1.2798576 53.63087,3.6775083 c -3.186923,1.8079746 -5.881083,4.3377378 -8.26362,7.0931647 -0.550995,0.428204 -1.309377,-0.174215 -1.944888,-0.07423 -3.153689,-0.26711 -6.510055,-0.07086 -9.247316,1.693782 -3.240575,1.702679 -5.515101,4.733312 -7.251613,7.870804 -0.515923,0.577277 -1.454625,-0.07921 -2.121676,-0.01644 -6.422538,-0.766634 -13.346471,-0.0017 -18.7664594,3.788171 -2.5750053,1.865926 -4.8596192,4.291907 -5.86948647,7.368848 -0.78022388,2.423471 -0.70442108,5.141476 0.0798783,7.556666 1.82494797,5.168129 6.83787187,8.383784 11.82020757,10.046162 0.967573,0.173669 1.67289,0.606008 1.792979,1.638018 1.740135,4.296591 6.182606,6.611406 10.293196,8.15155 5.931467,2.15515 12.20754,3.171172 18.487284,3.583267 1.029693,0.213101 2.075047,0.231669 2.605325,-0.844406 2.343666,-2.268641 5.214592,-3.964396 7.611065,-6.115715 -0.573408,-0.708747 -1.832741,-0.364197 -2.69032,-0.504434 -4.447514,-0.139184 -8.917658,0.04063 -13.351785,-0.152908 -5.328976,-1.269902 -11.046604,-2.103892 -15.526,-5.47598 -1.021083,-0.8051 0.130702,-2.072154 -0.155715,-3.098426 -0.08459,-1.527313 -1.294533,-2.738407 -2.7755,-2.984391 C 14.814058,42.339673 11.020424,41.653172 8.4806523,38.80532 7.2800919,37.78176 6.5548215,36.242675 6.8168108,34.650377 c 0.094611,-2.481883 2.3150204,-4.295027 4.3491752,-5.419668 4.862212,-2.676168 10.690447,-2.657755 15.914198,-1.140059 1.531551,0.680293 3.671689,0.713002 4.651092,-0.885609 1.096355,-1.821661 1.519514,-3.997204 2.840856,-5.707264 1.613743,-2.527633 4.676976,-4.380749 7.774722,-3.747528 1.919551,0.21693 3.858304,1.980419 5.792545,0.8863 1.865282,-1.291776 2.753871,-3.526493 4.4025,-5.054708 4.295995,-4.6504343 10.743533,-7.2139177 17.08444,-6.8058167 8.400487,-0.00435 17.003143,5.2720447 19.733425,13.4247157 1.117595,3.166191 0.952441,6.649227 0.224448,9.902472 -0.247008,1.507376 -0.0052,3.338328 1.485683,4.125939 1.506077,0.808409 3.364642,0.265155 4.969083,0.457134 2.135602,0.04551 4.282102,1.508192 5.016732,3.526902 0.64857,2.291 -1.00314,4.71893 -3.248275,5.289836 -1.988825,0.916858 -4.185044,0.285367 -6.291455,0.228912 -1.8799,0.149509 -3.427359,2.042059 -3.016597,3.929137 0.198955,0.741701 -0.0176,1.467551 -0.72299,1.844071 -3.725121,2.696902 -8.350597,3.689538 -12.754297,4.658494 -3.581498,0.661748 -7.190671,1.281606 -10.826056,1.440993 -1.964859,-0.168544 -3.955164,-0.404222 -5.92133,-0.326967 -0.75881,1.361725 -1.002267,3.021746 -1.549481,4.497146 -0.17724,1.001351 -0.855458,2.021842 -0.730316,3.028292 0.879275,0.51666 2.050834,0.05715 3.026467,0.13145 4.458163,-0.359822 8.963938,-0.102416 13.38819,-0.951098 6.633885,-1.171045 13.536117,-2.492426 19.211372,-6.339461 1.599539,-1.063977 2.923114,-2.523193 3.80346,-4.21433 2.557525,-0.360314 5.158618,-0.968657 7.362818,-2.395462 3.32065,-1.944716 5.56319,-5.608443 5.54119,-9.490008 0.21639,-4.700664 -3.00658,-9.020913 -7.24853,-10.806511 C 99.916213,28.199448 98.672615,27.872539 97.434547,27.557208 97.323254,23.728997 97.110351,19.801797 95.484135,16.265252 92.186653,8.4394559 84.888788,2.6737691 76.753055,0.52660178 73.760846,-0.42581781 70.583884,-0.18535976 67.491959,-0.21848436 Z"
       id="path90"
       transform="translate(310.1,167.39)" />
    <path
       style="fill:#333333;fill-opacity:0;stroke-width:0.176777"
       d="M 67.713965,-0.22504443 C 61.943398,-0.46585846 56.292637,1.7210709 51.609524,4.9766968 49.226837,6.6822995 47.10773,8.7535077 45.252621,11.016158 c -2.768339,-0.561162 -5.726348,-0.634501 -8.454552,0.16193 -4.385466,1.474284 -7.808925,5.022677 -9.858408,9.089844 -0.463938,0.596685 -1.399773,-0.06753 -2.030569,-0.01835 -6.110235,-0.719758 -12.656911,-0.129123 -17.9749142,3.207684 -4.0726257,2.448251 -7.58055261,6.801234 -7.30375407,11.777643 0.006843,4.552184 2.87592597,8.647186 6.63180547,11.017081 2.1668706,1.499989 4.6923648,2.320323 7.1267388,3.239337 0.495461,1.327776 1.045711,2.711651 2.024483,3.796777 3.113327,3.732657 7.95374,5.33013 12.453409,6.681641 5.323434,1.532565 10.874105,2.086805 16.353758,2.594081 1.070914,-0.984694 2.024749,-2.13225 3.253758,-2.958135 1.728138,-1.428883 3.724112,-2.647332 5.334413,-4.185093 -0.584093,-0.708379 -1.852156,-0.366728 -2.719322,-0.506852 -4.439392,-0.140647 -8.90219,0.0407 -13.327519,-0.155921 C 31.53752,53.470101 25.898676,52.675972 21.453714,49.396036 20.819202,49.032612 20.629525,48.302195 20.975864,47.668665 21.425099,46.007476 20.743542,43.938059 18.981602,43.397713 15.526349,42.356956 11.549474,41.983084 8.932968,39.210319 7.6761339,38.053685 6.3946471,36.483589 6.8095601,34.664529 6.9697033,31.727153 9.7120773,29.92344 12.085585,28.732842 c 4.310985,-1.959784 9.309879,-2.051047 13.875739,-0.951833 1.648444,0.435378 3.631695,1.375851 5.165045,0.101095 1.570053,-1.367969 1.677439,-3.675916 2.806054,-5.352153 1.493481,-2.959488 4.728363,-5.32892 8.176198,-4.816649 1.977601,0.08757 3.760101,1.910268 5.76216,1.038908 2.05796,-1.186663 2.936017,-3.589802 4.631412,-5.150693 C 57.114505,8.6174462 64.12204,6.1207708 70.872908,6.8197757 78.856342,7.2643631 86.700322,12.44893 89.358062,20.16159 c 1.174842,3.31509 0.853329,6.889412 0.164203,10.264894 -0.222196,1.365952 0.087,2.921036 1.36602,3.676641 1.23393,0.972008 2.957837,0.38059 4.391105,0.559694 1.567668,-0.267399 2.971496,0.497468 4.213294,1.37104 1.549686,1.105646 2.354896,3.412646 1.209126,5.079912 -0.66509,1.72149 -2.562101,2.341412 -4.190852,2.784232 -1.837755,0.41273 -3.702505,-0.384823 -5.534976,-0.05973 -1.9743,0.551841 -3.127959,2.895452 -2.393735,4.793343 -2.108854,2.334502 -5.305556,3.259905 -8.200699,4.222417 -5.098019,1.474097 -10.380889,2.320684 -15.652761,2.722282 -2.183376,-0.05605 -4.379703,-0.277303 -6.530725,-0.481648 -0.527525,0.704843 -0.477319,1.781538 -0.851067,2.597706 -0.417195,1.655407 -1.119672,3.28025 -1.443233,4.94776 0.486406,0.757076 1.649408,0.234949 2.394926,0.335816 4.668597,-0.389835 9.381243,-0.123769 14.01596,-0.985955 6.506225,-1.066234 13.194881,-2.450674 18.846052,-6.013513 1.794098,-1.109902 3.22409,-2.706966 4.27268,-4.514713 1.681092,-0.354324 3.449248,-0.542319 5.05195,-1.252627 3.07483,-1.15615 5.71777,-3.563417 7.03792,-6.579408 1.86331,-4.365026 0.50939,-9.761209 -3.10911,-12.810133 -1.95695,-1.792979 -4.589377,-2.57563 -7.055552,-3.304167 -0.145135,-3.086423 -0.07051,-6.25047 -1.105546,-9.215178 C 93.440188,9.4566045 85.556175,2.8233348 76.700228,0.50415943 c -2.909565,-0.8843468 -5.98569,-0.70066857 -8.986263,-0.72920386 z"
       id="path915"
       transform="translate(310.1,167.39)" />
    <path
       style="fill:#333333;fill-opacity:0;stroke-width:0.176777"
       d="M 67.713965,-0.22504443 C 61.943398,-0.46585846 56.292637,1.7210709 51.609524,4.9766968 49.226837,6.6822995 47.10773,8.7535077 45.252621,11.016158 c -2.768339,-0.561162 -5.726348,-0.634501 -8.454552,0.16193 -4.385466,1.474284 -7.808925,5.022677 -9.858408,9.089844 -0.463938,0.596685 -1.399773,-0.06753 -2.030569,-0.01835 -6.110235,-0.719758 -12.656911,-0.129123 -17.9749142,3.207684 -4.0726257,2.448251 -7.58055261,6.801234 -7.30375407,11.777643 0.006843,4.552184 2.87592597,8.647186 6.63180547,11.017081 2.1668706,1.499989 4.6923648,2.320323 7.1267388,3.239337 0.495461,1.327776 1.045711,2.711651 2.024483,3.796777 3.113327,3.732657 7.95374,5.33013 12.453409,6.681641 5.323434,1.532565 10.874105,2.086805 16.353758,2.594081 1.070914,-0.984694 2.024749,-2.13225 3.253758,-2.958135 1.728138,-1.428883 3.724112,-2.647332 5.334413,-4.185093 -0.584093,-0.708379 -1.852156,-0.366728 -2.719322,-0.506852 -4.439392,-0.140647 -8.90219,0.0407 -13.327519,-0.155921 C 31.53752,53.470101 25.898676,52.675972 21.453714,49.396036 20.819202,49.032612 20.629525,48.302195 20.975864,47.668665 21.425099,46.007476 20.743542,43.938059 18.981602,43.397713 15.526349,42.356956 11.549474,41.983084 8.932968,39.210319 7.6761339,38.053685 6.3946471,36.483589 6.8095601,34.664529 6.9697033,31.727153 9.7120773,29.92344 12.085585,28.732842 c 4.310985,-1.959784 9.309879,-2.051047 13.875739,-0.951833 1.648444,0.435378 3.631695,1.375851 5.165045,0.101095 1.570053,-1.367969 1.677439,-3.675916 2.806054,-5.352153 1.493481,-2.959488 4.728363,-5.32892 8.176198,-4.816649 1.977601,0.08757 3.760101,1.910268 5.76216,1.038908 2.05796,-1.186663 2.936017,-3.589802 4.631412,-5.150693 C 57.114505,8.6174462 64.12204,6.1207708 70.872908,6.8197757 78.856342,7.2643631 86.700322,12.44893 89.358062,20.16159 c 1.174842,3.31509 0.853329,6.889412 0.164203,10.264894 -0.222196,1.365952 0.087,2.921036 1.36602,3.676641 1.23393,0.972008 2.957837,0.38059 4.391105,0.559694 1.567668,-0.267399 2.971496,0.497468 4.213294,1.37104 1.549686,1.105646 2.354896,3.412646 1.209126,5.079912 -0.66509,1.72149 -2.562101,2.341412 -4.190852,2.784232 -1.837755,0.41273 -3.702505,-0.384823 -5.534976,-0.05973 -1.9743,0.551841 -3.127959,2.895452 -2.393735,4.793343 -2.108854,2.334502 -5.305556,3.259905 -8.200699,4.222417 -5.098019,1.474097 -10.380889,2.320684 -15.652761,2.722282 -2.183376,-0.05605 -4.379703,-0.277303 -6.530725,-0.481648 -0.527525,0.704843 -0.477319,1.781538 -0.851067,2.597706 -0.417195,1.655407 -1.119672,3.28025 -1.443233,4.94776 0.486406,0.757076 1.649408,0.234949 2.394926,0.335816 4.668597,-0.389835 9.381243,-0.123769 14.01596,-0.985955 6.506225,-1.066234 13.194881,-2.450674 18.846052,-6.013513 1.794098,-1.109902 3.22409,-2.706966 4.27268,-4.514713 1.681092,-0.354324 3.449248,-0.542319 5.05195,-1.252627 3.07483,-1.15615 5.71777,-3.563417 7.03792,-6.579408 1.86331,-4.365026 0.50939,-9.761209 -3.10911,-12.810133 -1.95695,-1.792979 -4.589377,-2.57563 -7.055552,-3.304167 -0.145135,-3.086423 -0.07051,-6.25047 -1.105546,-9.215178 C 93.440188,9.4566045 85.556175,2.8233348 76.700228,0.50415943 c -2.909565,-0.8843468 -5.98569,-0.70066857 -8.986263,-0.72920386 z"
       id="path917"
       transform="translate(310.1,167.39)" />
    <path
       style="fill:#333333;fill-opacity:0;stroke-width:0.176777"
       d="M 67.566882,-0.21537696 C 62.200763,-0.40636275 56.960881,1.5848563 52.499776,4.4491799 c -2.771241,1.797767 -5.160552,4.1172367 -7.279609,6.6381031 -2.536132,-0.607081 -5.246633,-0.592118 -7.79164,-0.04281 -4.674997,1.310012 -8.27043,5.076188 -10.469531,9.278014 -0.846097,0.489386 -1.940575,-0.137575 -2.865081,-0.116556 -5.003076,-0.445918 -10.241251,-0.151959 -14.8289475,2.07714 -3.3185863,1.423816 -6.1090213,3.948658 -8.0640523,6.961281 -2.7205216,4.513199 -1.73191953,10.668275 1.9740193,14.329105 2.7394553,2.901872 6.4445604,4.631001 10.1912455,5.828451 0.459068,0.252975 0.269971,0.990254 0.608706,1.385212 1.713572,4.000297 5.786925,6.227058 9.656772,7.71568 6.494107,2.52645 13.474183,3.522656 20.391814,3.906005 1.031753,-0.413866 1.582697,-1.555529 2.534011,-2.114953 1.985393,-1.718743 4.289069,-3.119262 6.196755,-4.877048 C 52.284355,54.74196 51.109216,55.155322 50.341676,54.970693 45.761779,54.776942 41.156695,54.961446 36.589593,54.758129 31.32294,53.526848 25.705118,52.607811 21.232743,49.32353 20.264385,48.7191 21.129345,47.559721 21.02351,46.681547 21.26489,44.932953 19.83669,43.426201 18.162183,43.19798 14.345814,42.338732 10.160158,41.398027 7.7027657,38.05229 5.9543178,35.865113 6.7273911,32.406721 8.8587196,30.751273 13.433146,26.857681 19.963124,26.364695 25.619289,27.660283 c 1.699238,0.304904 3.742249,1.557295 5.318564,0.221131 1.740658,-1.372262 1.864716,-3.856077 3.055958,-5.583658 1.364472,-2.544081 4.025972,-4.739169 7.020575,-4.66479 2.008471,-0.237973 3.700095,1.049392 5.605147,1.332963 2.317749,0.06381 3.287076,-2.493549 4.559251,-3.940186 3.91338,-5.027876 10.06893,-8.0652256 16.422624,-8.3409593 6.381504,-0.3246016 13.027856,1.8277056 17.46645,6.5720993 2.581049,2.430671 4.255071,5.807695 4.92678,9.258998 0.419748,2.656576 0.164657,5.369348 -0.449442,7.997503 -0.574307,2.149596 1.413372,4.396274 3.60148,4.145967 2.693453,-0.466475 5.984321,0.126247 7.518534,2.615742 1.10329,1.671791 0.47381,3.831186 -0.736455,5.255309 -0.192535,0.580436 -1.081619,0.38105 -1.521247,0.760278 -1.977478,1.049838 -4.271743,0.773552 -6.391927,0.464728 -2.328172,-0.107828 -4.256878,2.520818 -3.381531,4.70927 0.03219,0.696876 -0.971639,1.10429 -1.49053,1.565958 -4.18621,2.547073 -9.082583,3.57993 -13.824722,4.512187 -3.36187,0.450739 -6.725894,1.224408 -10.128866,1.034873 -1.672057,-0.09951 -3.39484,-0.391456 -5.041589,-0.200256 -0.770419,2.369815 -1.56269,4.751381 -2.17173,7.172923 0.464462,0.830273 1.928961,0.08416 2.776568,0.280889 4.956262,-0.174782 9.94478,-0.127585 14.833692,-1.09324 6.557391,-1.175848 13.395871,-2.664237 18.813336,-6.764188 1.253924,-0.929257 2.1868,-2.196568 2.931663,-3.54313 2.092339,-0.503349 4.343901,-0.719591 6.295598,-1.754302 2.56971,-1.316269 4.80412,-3.505968 5.88369,-6.201686 0.16496,-0.690549 0.59346,-1.345709 0.60931,-2.111746 0.92131,-4.486338 -1.37984,-9.233782 -5.23339,-11.599091 -1.68306,-1.020087 -3.570071,-1.750342 -5.493275,-2.150383 C 97.086375,24.267008 97.289253,20.745091 95.938813,17.565087 93.241307,9.9784339 86.781229,4.0701191 79.254054,1.4111899 76.326887,0.23541303 73.188626,-0.34966632 70.032432,-0.21468642 c -0.821856,-0.004007 -1.643691,-0.003479 -2.46555,-6.9054e-4 z"
       id="path919"
       transform="translate(310.1,167.39)" />
    <path
       style="fill:#333333;fill-opacity:0;stroke-width:0.176777"
       d="M 67.566882,-0.21537696 C 62.200763,-0.40636275 56.960881,1.5848563 52.499776,4.4491799 c -2.771241,1.797767 -5.160552,4.1172367 -7.279609,6.6381031 -2.536132,-0.607081 -5.246633,-0.592118 -7.79164,-0.04281 -4.674997,1.310012 -8.27043,5.076188 -10.469531,9.278014 -0.846097,0.489386 -1.940575,-0.137575 -2.865081,-0.116556 -5.003076,-0.445918 -10.241251,-0.151959 -14.8289475,2.07714 -3.3185863,1.423816 -6.1090213,3.948658 -8.0640523,6.961281 -2.7205216,4.513199 -1.73191953,10.668275 1.9740193,14.329105 2.7394553,2.901872 6.4445604,4.631001 10.1912455,5.828451 0.459068,0.252975 0.269971,0.990254 0.608706,1.385212 1.713572,4.000297 5.786925,6.227058 9.656772,7.71568 6.494107,2.52645 13.474183,3.522656 20.391814,3.906005 1.031753,-0.413866 1.582697,-1.555529 2.534011,-2.114953 1.985393,-1.718743 4.289069,-3.119262 6.196755,-4.877048 C 52.284355,54.74196 51.109216,55.155322 50.341676,54.970693 45.761779,54.776942 41.156695,54.961446 36.589593,54.758129 31.32294,53.526848 25.705118,52.607811 21.232743,49.32353 20.264385,48.7191 21.129345,47.559721 21.02351,46.681547 21.26489,44.932953 19.83669,43.426201 18.162183,43.19798 14.345814,42.338732 10.160158,41.398027 7.7027657,38.05229 5.9543178,35.865113 6.7273911,32.406721 8.8587196,30.751273 13.433146,26.857681 19.963124,26.364695 25.619289,27.660283 c 1.699238,0.304904 3.742249,1.557295 5.318564,0.221131 1.740658,-1.372262 1.864716,-3.856077 3.055958,-5.583658 1.364472,-2.544081 4.025972,-4.739169 7.020575,-4.66479 2.008471,-0.237973 3.700095,1.049392 5.605147,1.332963 2.317749,0.06381 3.287076,-2.493549 4.559251,-3.940186 3.91338,-5.027876 10.06893,-8.0652256 16.422624,-8.3409593 6.381504,-0.3246016 13.027856,1.8277056 17.46645,6.5720993 2.581049,2.430671 4.255071,5.807695 4.92678,9.258998 0.419748,2.656576 0.164657,5.369348 -0.449442,7.997503 -0.574307,2.149596 1.413372,4.396274 3.60148,4.145967 2.693453,-0.466475 5.984321,0.126247 7.518534,2.615742 1.10329,1.671791 0.47381,3.831186 -0.736455,5.255309 -0.192535,0.580436 -1.081619,0.38105 -1.521247,0.760278 -1.977478,1.049838 -4.271743,0.773552 -6.391927,0.464728 -2.328172,-0.107828 -4.256878,2.520818 -3.381531,4.70927 0.03219,0.696876 -0.971639,1.10429 -1.49053,1.565958 -4.18621,2.547073 -9.082583,3.57993 -13.824722,4.512187 -3.36187,0.450739 -6.725894,1.224408 -10.128866,1.034873 -1.672057,-0.09951 -3.39484,-0.391456 -5.041589,-0.200256 -0.770419,2.369815 -1.56269,4.751381 -2.17173,7.172923 0.464462,0.830273 1.928961,0.08416 2.776568,0.280889 4.956262,-0.174782 9.94478,-0.127585 14.833692,-1.09324 6.557391,-1.175848 13.395871,-2.664237 18.813336,-6.764188 1.253924,-0.929257 2.1868,-2.196568 2.931663,-3.54313 2.092339,-0.503349 4.343901,-0.719591 6.295598,-1.754302 2.56971,-1.316269 4.80412,-3.505968 5.88369,-6.201686 0.16496,-0.690549 0.59346,-1.345709 0.60931,-2.111746 0.92131,-4.486338 -1.37984,-9.233782 -5.23339,-11.599091 -1.68306,-1.020087 -3.570071,-1.750342 -5.493275,-2.150383 C 97.086375,24.267008 97.289253,20.745091 95.938813,17.565087 93.241307,9.9784339 86.781229,4.0701191 79.254054,1.4111899 76.326887,0.23541303 73.188626,-0.34966632 70.032432,-0.21468642 c -0.821856,-0.004007 -1.643691,-0.003479 -2.46555,-6.9054e-4 z"
       id="path921"
       transform="translate(310.1,167.39)" />
    <path
       style="fill:#333333;fill-opacity:0;stroke-width:0.176777"
       d="M 67.566882,-0.21537696 C 62.200763,-0.40636275 56.960881,1.5848563 52.499776,4.4491799 c -2.771241,1.797767 -5.160552,4.1172367 -7.279609,6.6381031 -2.536132,-0.607081 -5.246633,-0.592118 -7.79164,-0.04281 -4.674997,1.310012 -8.27043,5.076188 -10.469531,9.278014 -0.846097,0.489386 -1.940575,-0.137575 -2.865081,-0.116556 -5.003076,-0.445918 -10.241251,-0.151959 -14.8289475,2.07714 -3.3185863,1.423816 -6.1090213,3.948658 -8.0640523,6.961281 -2.7205216,4.513199 -1.73191953,10.668275 1.9740193,14.329105 2.7394553,2.901872 6.4445604,4.631001 10.1912455,5.828451 0.459068,0.252975 0.269971,0.990254 0.608706,1.385212 1.713572,4.000297 5.786925,6.227058 9.656772,7.71568 6.494107,2.52645 13.474183,3.522656 20.391814,3.906005 1.031753,-0.413866 1.582697,-1.555529 2.534011,-2.114953 1.985393,-1.718743 4.289069,-3.119262 6.196755,-4.877048 C 52.284355,54.74196 51.109216,55.155322 50.341676,54.970693 45.761779,54.776942 41.156695,54.961446 36.589593,54.758129 31.32294,53.526848 25.705118,52.607811 21.232743,49.32353 20.264385,48.7191 21.129345,47.559721 21.02351,46.681547 21.26489,44.932953 19.83669,43.426201 18.162183,43.19798 14.345814,42.338732 10.160158,41.398027 7.7027657,38.05229 5.9543178,35.865113 6.7273911,32.406721 8.8587196,30.751273 13.433146,26.857681 19.963124,26.364695 25.619289,27.660283 c 1.699238,0.304904 3.742249,1.557295 5.318564,0.221131 1.740658,-1.372262 1.864716,-3.856077 3.055958,-5.583658 1.364472,-2.544081 4.025972,-4.739169 7.020575,-4.66479 2.008471,-0.237973 3.700095,1.049392 5.605147,1.332963 2.317749,0.06381 3.287076,-2.493549 4.559251,-3.940186 3.91338,-5.027876 10.06893,-8.0652256 16.422624,-8.3409593 6.381504,-0.3246016 13.027856,1.8277056 17.46645,6.5720993 2.581049,2.430671 4.255071,5.807695 4.92678,9.258998 0.419748,2.656576 0.164657,5.369348 -0.449442,7.997503 -0.574307,2.149596 1.413372,4.396274 3.60148,4.145967 2.693453,-0.466475 5.984321,0.126247 7.518534,2.615742 1.10329,1.671791 0.47381,3.831186 -0.736455,5.255309 -0.192535,0.580436 -1.081619,0.38105 -1.521247,0.760278 -1.977478,1.049838 -4.271743,0.773552 -6.391927,0.464728 -2.328172,-0.107828 -4.256878,2.520818 -3.381531,4.70927 0.03219,0.696876 -0.971639,1.10429 -1.49053,1.565958 -4.18621,2.547073 -9.082583,3.57993 -13.824722,4.512187 -3.36187,0.450739 -6.725894,1.224408 -10.128866,1.034873 -1.672057,-0.09951 -3.39484,-0.391456 -5.041589,-0.200256 -0.770419,2.369815 -1.56269,4.751381 -2.17173,7.172923 0.464462,0.830273 1.928961,0.08416 2.776568,0.280889 4.956262,-0.174782 9.94478,-0.127585 14.833692,-1.09324 6.557391,-1.175848 13.395871,-2.664237 18.813336,-6.764188 1.253924,-0.929257 2.1868,-2.196568 2.931663,-3.54313 2.092339,-0.503349 4.343901,-0.719591 6.295598,-1.754302 2.56971,-1.316269 4.80412,-3.505968 5.88369,-6.201686 0.16496,-0.690549 0.59346,-1.345709 0.60931,-2.111746 0.92131,-4.486338 -1.37984,-9.233782 -5.23339,-11.599091 -1.68306,-1.020087 -3.570071,-1.750342 -5.493275,-2.150383 C 97.086375,24.267008 97.289253,20.745091 95.938813,17.565087 93.241307,9.9784339 86.781229,4.0701191 79.254054,1.4111899 76.326887,0.23541303 73.188626,-0.34966632 70.032432,-0.21468642 c -0.821856,-0.004007 -1.643691,-0.003479 -2.46555,-6.9054e-4 z"
       id="path923"
       transform="translate(310.1,167.39)" />
    <path
       style="fill:#333333;fill-opacity:0;stroke-width:0.176777"
       d="M 67.566882,-0.21537696 C 62.200763,-0.40636275 56.960881,1.5848563 52.499776,4.4491799 c -2.771241,1.797767 -5.160552,4.1172367 -7.279609,6.6381031 -2.536132,-0.607081 -5.246633,-0.592118 -7.79164,-0.04281 -4.674997,1.310012 -8.27043,5.076188 -10.469531,9.278014 -0.846097,0.489386 -1.940575,-0.137575 -2.865081,-0.116556 -5.003076,-0.445918 -10.241251,-0.151959 -14.8289475,2.07714 -3.3185863,1.423816 -6.1090213,3.948658 -8.0640523,6.961281 -2.7205216,4.513199 -1.73191953,10.668275 1.9740193,14.329105 2.7394553,2.901872 6.4445604,4.631001 10.1912455,5.828451 0.459068,0.252975 0.269971,0.990254 0.608706,1.385212 1.713572,4.000297 5.786925,6.227058 9.656772,7.71568 6.494107,2.52645 13.474183,3.522656 20.391814,3.906005 1.031753,-0.413866 1.582697,-1.555529 2.534011,-2.114953 1.985393,-1.718743 4.289069,-3.119262 6.196755,-4.877048 C 52.284355,54.74196 51.109216,55.155322 50.341676,54.970693 45.761779,54.776942 41.156695,54.961446 36.589593,54.758129 31.32294,53.526848 25.705118,52.607811 21.232743,49.32353 20.264385,48.7191 21.129345,47.559721 21.02351,46.681547 21.26489,44.932953 19.83669,43.426201 18.162183,43.19798 14.345814,42.338732 10.160158,41.398027 7.7027657,38.05229 5.9543178,35.865113 6.7273911,32.406721 8.8587196,30.751273 13.433146,26.857681 19.963124,26.364695 25.619289,27.660283 c 1.699238,0.304904 3.742249,1.557295 5.318564,0.221131 1.740658,-1.372262 1.864716,-3.856077 3.055958,-5.583658 1.364472,-2.544081 4.025972,-4.739169 7.020575,-4.66479 2.008471,-0.237973 3.700095,1.049392 5.605147,1.332963 2.317749,0.06381 3.287076,-2.493549 4.559251,-3.940186 3.91338,-5.027876 10.06893,-8.0652256 16.422624,-8.3409593 6.381504,-0.3246016 13.027856,1.8277056 17.46645,6.5720993 2.581049,2.430671 4.255071,5.807695 4.92678,9.258998 0.419748,2.656576 0.164657,5.369348 -0.449442,7.997503 -0.574307,2.149596 1.413372,4.396274 3.60148,4.145967 2.693453,-0.466475 5.984321,0.126247 7.518534,2.615742 1.10329,1.671791 0.47381,3.831186 -0.736455,5.255309 -0.192535,0.580436 -1.081619,0.38105 -1.521247,0.760278 -1.977478,1.049838 -4.271743,0.773552 -6.391927,0.464728 -2.328172,-0.107828 -4.256878,2.520818 -3.381531,4.70927 0.03219,0.696876 -0.971639,1.10429 -1.49053,1.565958 -4.18621,2.547073 -9.082583,3.57993 -13.824722,4.512187 -3.36187,0.450739 -6.725894,1.224408 -10.128866,1.034873 -1.672057,-0.09951 -3.39484,-0.391456 -5.041589,-0.200256 -0.770419,2.369815 -1.56269,4.751381 -2.17173,7.172923 0.464462,0.830273 1.928961,0.08416 2.776568,0.280889 4.956262,-0.174782 9.94478,-0.127585 14.833692,-1.09324 6.557391,-1.175848 13.395871,-2.664237 18.813336,-6.764188 1.253924,-0.929257 2.1868,-2.196568 2.931663,-3.54313 2.092339,-0.503349 4.343901,-0.719591 6.295598,-1.754302 2.56971,-1.316269 4.80412,-3.505968 5.88369,-6.201686 0.16496,-0.690549 0.59346,-1.345709 0.60931,-2.111746 0.92131,-4.486338 -1.37984,-9.233782 -5.23339,-11.599091 -1.68306,-1.020087 -3.570071,-1.750342 -5.493275,-2.150383 C 97.086375,24.267008 97.289253,20.745091 95.938813,17.565087 93.241307,9.9784339 86.781229,4.0701191 79.254054,1.4111899 76.326887,0.23541303 73.188626,-0.34966632 70.032432,-0.21468642 c -0.821856,-0.004007 -1.643691,-0.003479 -2.46555,-6.9054e-4 z"
       id="path925"
       transform="translate(310.1,167.39)" />
    <path
       style="fill:#333333;fill-opacity:0;stroke-width:0.176777"
       d="M 67.566882,-0.21537696 C 62.200763,-0.40636275 56.960881,1.5848563 52.499776,4.4491799 c -2.771241,1.797767 -5.160552,4.1172367 -7.279609,6.6381031 -2.536132,-0.607081 -5.246633,-0.592118 -7.79164,-0.04281 -4.674997,1.310012 -8.27043,5.076188 -10.469531,9.278014 -0.846097,0.489386 -1.940575,-0.137575 -2.865081,-0.116556 -5.003076,-0.445918 -10.241251,-0.151959 -14.8289475,2.07714 -3.3185863,1.423816 -6.1090213,3.948658 -8.0640523,6.961281 -2.7205216,4.513199 -1.73191953,10.668275 1.9740193,14.329105 2.7394553,2.901872 6.4445604,4.631001 10.1912455,5.828451 0.459068,0.252975 0.269971,0.990254 0.608706,1.385212 1.713572,4.000297 5.786925,6.227058 9.656772,7.71568 6.494107,2.52645 13.474183,3.522656 20.391814,3.906005 1.031753,-0.413866 1.582697,-1.555529 2.534011,-2.114953 1.985393,-1.718743 4.289069,-3.119262 6.196755,-4.877048 C 52.284355,54.74196 51.109216,55.155322 50.341676,54.970693 45.761779,54.776942 41.156695,54.961446 36.589593,54.758129 31.32294,53.526848 25.705118,52.607811 21.232743,49.32353 20.264385,48.7191 21.129345,47.559721 21.02351,46.681547 21.26489,44.932953 19.83669,43.426201 18.162183,43.19798 14.345814,42.338732 10.160158,41.398027 7.7027657,38.05229 5.9543178,35.865113 6.7273911,32.406721 8.8587196,30.751273 13.433146,26.857681 19.963124,26.364695 25.619289,27.660283 c 1.699238,0.304904 3.742249,1.557295 5.318564,0.221131 1.740658,-1.372262 1.864716,-3.856077 3.055958,-5.583658 1.364472,-2.544081 4.025972,-4.739169 7.020575,-4.66479 2.008471,-0.237974 3.700095,1.049392 5.605147,1.332963 2.317749,0.06381 3.287076,-2.493549 4.559251,-3.940186 3.91338,-5.027876 10.06893,-8.0652256 16.422624,-8.3409593 6.381504,-0.3246016 13.027856,1.8277056 17.46645,6.5720993 2.581049,2.430671 4.255071,5.807695 4.92678,9.258998 0.419748,2.656576 0.164657,5.369348 -0.449442,7.997503 -0.574307,2.149596 1.413372,4.396274 3.60148,4.145967 2.693453,-0.466475 5.984321,0.126247 7.518534,2.615742 1.10329,1.671791 0.47381,3.831186 -0.736455,5.255309 -0.192535,0.580436 -1.081619,0.38105 -1.521247,0.760278 -1.977478,1.049838 -4.271743,0.773552 -6.391927,0.464728 -2.328172,-0.107828 -4.256878,2.520818 -3.381531,4.70927 0.03219,0.696876 -0.971639,1.10429 -1.49053,1.565958 -4.18621,2.547073 -9.082583,3.57993 -13.824722,4.512187 -3.36187,0.450739 -6.725894,1.224408 -10.128866,1.034873 -1.672057,-0.09951 -3.39484,-0.391456 -5.041589,-0.200256 -0.770419,2.369815 -1.56269,4.751381 -2.17173,7.172923 0.464462,0.830273 1.928961,0.08416 2.776568,0.280889 4.956262,-0.174782 9.94478,-0.127585 14.833692,-1.09324 6.557391,-1.175848 13.395871,-2.664237 18.813336,-6.764188 1.253924,-0.929257 2.1868,-2.196568 2.931663,-3.54313 2.092339,-0.503349 4.343901,-0.719591 6.295598,-1.754302 2.56971,-1.316269 4.80412,-3.505968 5.88369,-6.201686 0.16496,-0.690549 0.59346,-1.345709 0.60931,-2.111746 0.92131,-4.486338 -1.37984,-9.233782 -5.23339,-11.599091 -1.68306,-1.020087 -3.570071,-1.750342 -5.493275,-2.150383 C 97.086375,24.267008 97.289253,20.745091 95.938813,17.565087 93.241307,9.9784339 86.781229,4.0701191 79.254054,1.4111898 76.326887,0.23541303 73.188626,-0.34966632 70.032432,-0.21468642 c -0.821856,-0.004007 -1.643691,-0.003479 -2.46555,-6.9054e-4 z"
       id="path927"
       transform="translate(310.1,167.39)" />
    <path
       style="fill:#333333;fill-opacity:0;stroke-width:0.176777"
       d="M 67.566882,-0.21537696 C 62.200763,-0.40636275 56.960881,1.5848563 52.499776,4.4491799 c -2.771241,1.797767 -5.160552,4.1172367 -7.279609,6.6381031 -2.536132,-0.607081 -5.246633,-0.592118 -7.79164,-0.04281 -4.674997,1.310012 -8.27043,5.076188 -10.469531,9.278014 -0.846097,0.489386 -1.940575,-0.137575 -2.865081,-0.116556 -5.003076,-0.445918 -10.241251,-0.151959 -14.8289475,2.07714 -3.3185863,1.423816 -6.1090213,3.948658 -8.0640523,6.961281 -2.7205216,4.513199 -1.73191953,10.668275 1.9740193,14.329105 2.7394553,2.901872 6.4445604,4.631001 10.1912455,5.828451 0.459068,0.252975 0.269971,0.990254 0.608706,1.385212 1.713572,4.000297 5.786925,6.227058 9.656772,7.71568 6.494107,2.52645 13.474183,3.522656 20.391814,3.906005 1.031753,-0.413866 1.582697,-1.555529 2.534011,-2.114953 1.985393,-1.718743 4.289069,-3.119262 6.196755,-4.877048 C 52.284355,54.74196 51.109216,55.155322 50.341676,54.970693 45.761779,54.776942 41.156695,54.961446 36.589593,54.758129 31.32294,53.526848 25.705118,52.607811 21.232743,49.32353 20.264385,48.7191 21.129345,47.559721 21.02351,46.681547 21.26489,44.932953 19.83669,43.426201 18.162183,43.19798 14.345814,42.338732 10.160158,41.398027 7.7027657,38.05229 5.9543178,35.865113 6.7273911,32.406721 8.8587196,30.751273 13.433146,26.857681 19.963124,26.364695 25.619289,27.660283 c 1.699238,0.304904 3.742249,1.557295 5.318564,0.221131 1.740658,-1.372262 1.864716,-3.856077 3.055958,-5.583658 1.364472,-2.544081 4.025972,-4.739169 7.020575,-4.66479 2.008471,-0.237974 3.700095,1.049392 5.605147,1.332963 2.317749,0.06381 3.287076,-2.493549 4.559251,-3.940186 3.91338,-5.027876 10.06893,-8.0652256 16.422624,-8.3409593 6.381504,-0.3246016 13.027856,1.8277056 17.46645,6.5720993 2.581049,2.430671 4.255071,5.807695 4.92678,9.258998 0.419748,2.656576 0.164657,5.369348 -0.449442,7.997503 -0.574307,2.149596 1.413372,4.396274 3.60148,4.145967 2.693453,-0.466475 5.984321,0.126247 7.518534,2.615742 1.10329,1.671791 0.47381,3.831186 -0.736455,5.255309 -0.192535,0.580436 -1.081619,0.38105 -1.521247,0.760278 -1.977478,1.049838 -4.271743,0.773552 -6.391927,0.464728 -2.328172,-0.107828 -4.256878,2.520818 -3.381531,4.70927 0.03219,0.696876 -0.971639,1.10429 -1.49053,1.565958 -4.18621,2.547073 -9.082583,3.57993 -13.824722,4.512187 -3.36187,0.450739 -6.725894,1.224408 -10.128866,1.034873 -1.672057,-0.09951 -3.39484,-0.391456 -5.041589,-0.200256 -0.770419,2.369815 -1.56269,4.751381 -2.17173,7.172923 0.464462,0.830273 1.928961,0.08416 2.776568,0.280889 4.956262,-0.174782 9.94478,-0.127585 14.833692,-1.09324 6.557391,-1.175848 13.395871,-2.664237 18.813336,-6.764188 1.253924,-0.929257 2.1868,-2.196568 2.931663,-3.54313 2.092339,-0.503349 4.343901,-0.719591 6.295598,-1.754302 2.56971,-1.316269 4.80412,-3.505968 5.88369,-6.201686 0.16496,-0.690549 0.59346,-1.345709 0.60931,-2.111746 0.92131,-4.486338 -1.37984,-9.233782 -5.23339,-11.599091 -1.68306,-1.020087 -3.570071,-1.750342 -5.493275,-2.150383 C 97.086375,24.267008 97.289253,20.745091 95.938813,17.565087 93.241307,9.9784339 86.781229,4.0701191 79.254054,1.4111898 76.326887,0.23541303 73.188626,-0.34966632 70.032432,-0.21468642 c -0.821856,-0.004007 -1.643691,-0.003479 -2.46555,-6.9054e-4 z"
       id="path929"
       transform="translate(310.1,167.39)" />
    <path
       transform="translate(310.1,167.39)"
       id="path966"
       d="m 68.944468,6.227892 c -6.128276,-0.1250368 -12.292794,2.3137921 -16.538229,6.760842 -1.423273,1.373331 -2.444692,3.076999 -3.669535,4.610496 -0.987777,1.207921 -2.832772,1.109442 -4.055418,0.331787 -2.653677,-1.255561 -5.975064,-0.961871 -8.279298,0.893799 -2.425741,1.788311 -3.593046,4.703576 -4.631103,7.401366 -0.500074,1.33327 -2.02561,2.187673 -3.411377,1.731934 -2.30158,-0.685415 -4.677435,-1.333214 -7.116633,-1.323625 -4.392542,-0.278777 -9.022818,0.807179 -12.4695485,3.63637 -1.4650752,1.206671 -2.6173804,2.98162 -2.466925,4.949565 -0.2160317,2.066072 1.4631973,3.66042 2.8802151,4.90526 2.6802474,2.400617 6.3892084,2.770164 9.7048744,3.729402 1.645539,0.459259 2.135916,2.633128 1.505615,4.050294 -0.417503,1.245228 0.908577,2.042408 1.786621,2.612549 4.259315,2.679252 9.333501,3.47608 14.15051,4.607334 1.739323,0.374326 3.550507,0.105683 5.320069,0.20799 3.787843,0.0024 7.591173,0.1078 11.369321,0.04572 2.096739,-1.379944 4.13651,-3.058759 6.247257,-4.317583 -0.225903,1.515958 -0.954867,2.942683 -1.138427,4.442627 0.903194,0.366998 2.000987,0.188366 2.978825,0.345675 1.255644,0.04558 2.518241,0.263437 3.765316,0.298367 6.71936,-0.763504 13.556274,-1.695217 19.843505,-4.335449 1.576364,-0.743681 3.311192,-1.523118 4.319092,-3.006347 0.09149,-0.5957 -0.302461,-1.17683 -0.131021,-1.802286 0.05461,-1.680214 1.680609,-3.009838 3.338296,-2.794882 1.355593,0.186175 2.728254,0.555367 4.10083,0.230957 1.309338,-0.214983 2.498956,-0.875417 3.67285,-1.427002 1.11181,-1.312201 2.10236,-3.102868 1.5166,-4.865478 -0.96513,-2.855561 -4.220015,-4.367788 -7.09428,-4.053999 -1.174402,0.03238 -2.543205,0.40864 -3.488236,-0.53316 -1.339412,-1.032634 -1.057051,-2.885649 -0.737792,-4.333496 0.534391,-2.291733 0.51214,-4.705618 0.177302,-7.026225 C 89.281578,16.532641 85.247753,11.669838 80.195492,8.9937947 76.756203,7.1642951 72.842283,6.1860721 68.944468,6.227892 Z"
       style="fill:#b3b3b3;stroke:none;stroke-width:0.125;fill-opacity:1" />
  </g>
  <metadata
     id="metadata13">
    <rdf:RDF>
      <cc:Work>
        <dc:format>image/svg+xml</dc:format>
        <dc:type
           rdf:resource="http://purl.org/dc/dcmitype/StillImage" />
        <cc:license
           rdf:resource="http://creativecommons.org/licenses/publicdomain/" />
        <dc:publisher>
          <cc:Agent
             rdf:about="http://openclipart.org/">
            <dc:title>Openclipart</dc:title>
          </cc:Agent>
        </dc:publisher>
        <dc:title>simple weather symbols 15</dc:title>
        <dc:date>2006-12-26T00:00:00</dc:date>
        <dc:description />
        <dc:source>https://openclipart.org/detail/15822/-by--15822</dc:source>
        <dc:creator>
          <cc:Agent>
            <dc:title>Anonymous</dc:title>
          </cc:Agent>
        </dc:creator>
      </cc:Work>
      <cc:License
         rdf:about="http://creativecommons.org/licenses/publicdomain/">
        <cc:permits
           rdf:resource="http://creativecommons.org/ns#Reproduction" />
        <cc:permits
           rdf:resource="http://creativecommons.org/ns#Distribution" />
        <cc:permits
           rdf:resource="http://creativecommons.org/ns#DerivativeWorks" />
      </cc:License>
    </rdf:RDF>
  </metadata>
</svg>
